<?xml version="1.0" encoding="utf-8"?>
<!-- Generator: Adobe Illustrator 24.0.1, SVG Export Plug-In . SVG Version: 6.00 Build 0)  -->
<svg version="1.1" id="Ebene_1" xmlns="http://www.w3.org/2000/svg" xmlns:xlink="http://www.w3.org/1999/xlink" x="0px" y="0px"
	 viewBox="0 0 10 10" style="enable-background:new 0 0 10 10;" xml:space="preserve">
<style type="text/css">
	.st0{fill:#75557F;}
	.st1{fill:#FFFFFF;}
</style>
<g>
	<path class="st0" d="M5,9.79C2.36,9.79,0.21,7.64,0.21,5S2.36,0.21,5,0.21c2.64,0,4.79,2.15,4.79,4.79S7.64,9.79,5,9.79z"/>
	<path class="st0" d="M5,0.33c2.57,0,4.67,2.09,4.67,4.67S7.57,9.67,5,9.67S0.33,7.57,0.33,5S2.43,0.33,5,0.33 M5,0.08
		c-2.72,0-4.92,2.2-4.92,4.92S2.28,9.92,5,9.92S9.92,7.72,9.92,5S7.72,0.08,5,0.08L5,0.08z"/>
</g>
<g>
	<path class="st1" d="M5.76,7.28c0,0.16-0.14,0.3-0.3,0.3H4.54c-0.16,0-0.3-0.13-0.3-0.3V2.72c0-0.16,0.14-0.3,0.3-0.3h0.92
		c0.16,0,0.3,0.13,0.3,0.3V7.28z"/>
</g>
<g>
	<path class="st1" d="M2.72,5.76c-0.16,0-0.3-0.14-0.3-0.3V4.54c0-0.16,0.13-0.3,0.3-0.3h4.56c0.16,0,0.3,0.14,0.3,0.3v0.92
		c0,0.16-0.13,0.3-0.3,0.3H2.72z"/>
</g>
</svg>
